<svg id="nWGErlCUr0" viewBox="0 0 365 146.54538332472364" height="146.54538332472364" width="365" style="width: 365px; height: 146.545px; position: absolute; top: 50%; left: 50%; transform: translate(-50%, -50%) scale(0.394521); z-index: 0; cursor: pointer; overflow: visible;"><defs id="SvgjsDefs1148"></defs><g id="SvgjsG1149" featurekey="symbolFeature-0" transform="matrix(1.7361111640930176,0,0,1.7361111640930176,4.375,4.895833664470249)" fill="#1a283a"><polygon xmlns="http://www.w3.org/2000/svg" points="71,48.7 71,18.2 54.8,9 38.7,9 63,22.8 63,36.7 63,53.3 "></polygon><polygon xmlns="http://www.w3.org/2000/svg" points="29,66 54.8,81 54.7,81 55.1,81.3 71.7,71.7 79.7,57.8 55.3,72 29,56.8 "></polygon><polygon xmlns="http://www.w3.org/2000/svg" points="61.2,57 61.3,57 46.9,65.2 54.8,69.8 81,54.5 81,35.2 73,21.3 73,49.8 "></polygon><polygon xmlns="http://www.w3.org/2000/svg" points="61,23.9 34.8,8.7 18.2,18.3 10.2,32.3 35,18 47,25 46.8,25 61,33.2 "></polygon><polygon xmlns="http://www.w3.org/2000/svg" points="35.2,20.3 9,35.6 9,54.8 17,68.7 17,40.2 28.8,33.2 28.8,33.2 43.2,24.9 "></polygon><polygon xmlns="http://www.w3.org/2000/svg" points="19,41.3 19,71.8 35.2,81 51.4,81 27,67.2 27,53.3 27,36.7 "></polygon></g><g id="SvgjsG1150" featurekey="nameFeature-0" transform="matrix(2.3255810737609863,0,0,2.3255810737609863,158.35548326754164,-6.578069147680491)" fill="#b2ebf2"><path d="M27.142857 17.714286 l-16.857143 0 l0 4.857143 l14.571429 0 l0 6.285714 l-14.571429 0 l0 4.857143 l16.857143 0 l0 6.285714 l-20 0 l-4.285714 -4.285714 l0 -24.285714 l24.285714 0 l0 6.285714 z M53.714286 11.428571 l4.285714 4.285714 l0 20 l-4.285714 4.285714 l-20.857143 0 l0 -28.571429 l20.857143 0 z M50.571429 33.714286 l0 -16 l-10.285714 0 l0 16 l10.285714 0 z M63.714286 35.714286 l0 -24.285714 l7.428571 0 l0 22.285714 l10.285714 0 l0 -22.285714 l7.428571 0 l0 24.285714 l-4.285714 4.285714 l-16.571429 0 z"></path></g><g id="SvgjsG1151" featurekey="nameFeature-1" transform="matrix(1.7535070180892944,0,0,1.7535070180892944,159.9899790617844,75.95992126396132)" fill="#b2ebf2"><path d="M19.428571 17.714286 l-9.142857 0 l0 16 l9.142857 0 l2.285714 -2.285714 l5.428571 0 l0 4.285714 l-4.285714 4.285714 l-15.714286 0 l-4.285714 -4.285714 l0 -20 l4.285714 -4.285714 l15.714286 0 l4.285714 4.285714 l0 4.285714 l-5.428571 0 z M50.628571 11.428571 l7.428571 0 l0 28.571429 l-7.428571 0 l0 -11.142857 l-10.285714 0 l0 11.142857 l-7.485714 0 l0.057143 -28.571429 l7.428571 0 l0 11.142857 l10.285714 0 l0 -11.142857 z M63.771429 40 l0 -24.285714 l4.285714 -4.285714 l16.571429 0 l4.285714 4.285714 l0 24.285714 l-7.428571 0 l0 -8 l-10.285714 0 l0 8 l-7.428571 0 z M71.2 25.714286 l10.285714 0 l0 -8 l-10.285714 0 l0 8 z M92.628572 17.714286 l0 -6.285714 l24.285714 0 l0 6.285714 l-8.457143 0 l0 22.285714 l-7.428571 0 l0 -22.285714 l-8.4 0 z"></path></g></svg>
