<?xml version="1.0" encoding="UTF-8" standalone="no"?>
<!-- Created with Inkscape (http://www.inkscape.org/) -->
<svg xmlns:dc="http://purl.org/dc/elements/1.1/" xmlns:cc="http://creativecommons.org/ns#" xmlns:rdf="http://www.w3.org/1999/02/22-rdf-syntax-ns#" xmlns:svg="http://www.w3.org/2000/svg" xmlns="http://www.w3.org/2000/svg" xmlns:sodipodi="http://sodipodi.sourceforge.net/DTD/sodipodi-0.dtd" xmlns:inkscape="http://www.inkscape.org/namespaces/inkscape" id="svg2" version="1.1" inkscape:version="0.91 r13725" xml:space="preserve" width="1250" height="1250" viewBox="0 0 1250 1250" sodipodi:docname="icon-vcrp_neu.svg"><defs id="defs6"><clipPath clipPathUnits="userSpaceOnUse" id="clipPath16"><path d="m 0,1000 1000,0 L 1000,0 0,0 0,1000 Z" id="path18" inkscape:connector-curvature="0"/></clipPath></defs><sodipodi:namedview pagecolor="#ffffff" bordercolor="#666666" borderopacity="1" objecttolerance="10" gridtolerance="10" guidetolerance="10" inkscape:pageopacity="0" inkscape:pageshadow="2" inkscape:window-width="1600" inkscape:window-height="987" id="namedview4" showgrid="false" inkscape:zoom="0.5730375" inkscape:cx="450" inkscape:cy="617.00375" inkscape:window-x="-4" inkscape:window-y="0" inkscape:window-maximized="0" inkscape:current-layer="g10"/><g id="g10" inkscape:groupmode="layer" inkscape:label="icon-vcrp_neu" transform="matrix(1.25,0,0,-1.25,0,1250)"><g id="g12"><circle style="opacity:1;fill:#0e3d51;fill-opacity:1;fill-rule:nonzero;stroke:#ffffff;stroke-width:56;stroke-miterlimit:4;stroke-dasharray:none;stroke-dashoffset:0;stroke-opacity:1" id="path3369" cx="498.39667" cy="-499.79279" r="469.07925" transform="scale(1,-1)"/><g id="g14" clip-path="url(#clipPath16)"><g id="g28" transform="translate(774.6268,508.7168)"><path d="m 0,0 c -29.018,0 -52.62,-23.606 -52.62,-52.618 0,-7.803 1.751,-15.186 4.807,-21.849 l -69.915,-62.493 c -0.085,0.075 -0.163,0.16 -0.251,0.231 -13.564,11.145 -30.222,17.02 -47.545,16.94 l -13.445,47.198 c 34.931,17.761 58.964,53.96 58.964,95.746 0,59.254 -48.209,107.46 -107.462,107.46 -17.132,0 -33.285,-4.134 -47.673,-11.301 l -26.435,34.535 c 7.49,11.583 10.863,25.237 9.492,39.139 -1.577,16.304 -9.428,31.016 -22.093,41.425 -12.648,10.402 -28.559,15.265 -44.837,13.65 -16.298,-1.561 -31.012,-9.387 -41.427,-22.037 -10.426,-12.659 -15.288,-28.618 -13.697,-44.94 1.588,-16.304 9.432,-31.013 22.086,-41.414 11.074,-9.1 24.672,-13.949 38.792,-13.949 2.019,0 4.054,0.101 6.086,0.298 5.334,0.516 10.467,1.763 15.359,3.563 l 25.658,-33.515 C -319.781,81.366 -329.354,62.905 -333.08,42.387 l -113.144,0.272 c -9.897,39.575 -48.63,65.968 -89.861,59.683 -43.562,-6.812 -73.549,-47.782 -66.839,-91.326 l 0.007,-0.031 c 6.137,-39.465 40.301,-67.771 79.042,-67.771 4.051,0 8.146,0.308 12.268,0.945 21.126,3.272 39.721,14.562 52.352,31.804 6.242,8.516 10.642,17.986 13.119,27.932 l 113.104,-0.272 c 9.221,-49.936 53.007,-87.907 105.565,-87.907 3.837,0 7.62,0.223 11.352,0.615 l 13.198,-46.325 c -7.512,-4.394 -14.307,-10.053 -19.997,-16.971 -12.654,-15.372 -18.551,-34.754 -16.627,-54.577 l 0.007,-0.017 c 1.94,-19.823 11.481,-37.699 26.866,-50.343 13.455,-11.064 29.974,-16.96 47.161,-16.96 2.453,0 4.926,0.122 7.406,0.366 40.909,3.983 70.964,40.505 66.981,81.41 -0.614,6.304 -2.079,12.38 -4.18,18.185 l 75.558,67.535 c 6.107,-2.481 12.756,-3.877 19.742,-3.877 29.014,0 52.616,23.606 52.616,52.625 C 52.616,-23.606 29.014,0 0,0" style="fill:#ffffff;fill-opacity:1;fill-rule:nonzero;stroke:#1c2648;stroke-width:1;stroke-linecap:butt;stroke-linejoin:miter;stroke-miterlimit:10;stroke-dasharray:none;stroke-opacity:1" id="path30" inkscape:connector-curvature="0"/></g><g id="g32" transform="translate(547.1637,600.5673)"><path d="m 0,0 c -37.865,0 -68.674,-30.817 -68.674,-68.696 0,-37.863 30.809,-68.672 68.674,-68.672 37.879,0 68.694,30.809 68.694,68.672 C 68.694,-30.817 37.879,0 0,0" style="fill:#0e3d51;fill-opacity:1;fill-rule:nonzero;stroke:#ffffff;stroke-width:1;stroke-linecap:butt;stroke-linejoin:miter;stroke-miterlimit:10;stroke-dasharray:none;stroke-opacity:1" id="path34" inkscape:connector-curvature="0"/></g></g></g></g><metadata id="metadata4191"><rdf:RDF><cc:Work rdf:about=""><dc:title/></cc:Work></rdf:RDF></metadata><style xmlns="" data-source="base" class="dblt-ykjmwcnxmi"/><style xmlns="" data-source="stylesheet-processor" class="dblt-ykjmwcnxmi"/></svg>