<svg id="pr0gramm-logo" version="1.1" xmlns="http://www.w3.org/2000/svg" xmlns:xlink="http://www.w3.org/1999/xlink" viewBox="0 0 30 30">  <rect id="pr0gramm-logo-background" fill="#D23C22" x="2" y="3" width="22" height="22" rx="2"></rect> <g id="pr0gramm-logo-sign" transform="translate(5.0, 7.0)" fill="#FFFFFF"> <rect x="8" y="10" width="7" height="2" rx="1"></rect> <path d="M2.0,9.7 C2.4,9.3 2.9,9.0 3.3,8.6 C3.8,8.2 4.2,7.8 4.7,7.5 C5.1,7.1 5.5,6.8 5.8,6.5 C5.5,6.3 5.2,6.0 4.7,5.6 C4.3,5.2 3.9,4.8 3.4,4.4 C2.9,4.0 2.5,3.7 2.0,3.3 C1.6,2.9 1.2,2.6 1.0,2.4 C0.7,2.1 0.6,1.8 0.6,1.5 C0.6,1.2 0.7,0.9 0.9,0.7 C1.1,0.5 1.3,0.4 1.6,0.4 C1.8,0.4 1.9,0.5 2.2,0.6 C2.2,0.6 2.4,0.8 2.7,1.0 C3.0,1.3 3.4,1.6 3.8,2.0 C4.2,2.3 4.6,2.7 5.1,3.1 C5.6,3.5 6.0,3.9 6.4,4.2 C6.8,4.5 7.2,4.8 7.5,5.1 C7.8,5.4 8.0,5.5 8.1,5.6 C8.4,5.9 8.5,6.2 8.5,6.6 C8.5,6.9 8.4,7.2 8.1,7.5 C7.7,7.8 7.2,8.2 6.7,8.6 C6.2,9.0 5.7,9.5 5.1,9.9 C4.6,10.3 4.1,10.8 3.5,11.2 C3.0,11.6 2.6,12.0 2.1,12.3 C1.9,12.4 1.7,12.5 1.5,12.5 C1.2,12.5 1.0,12.4 0.8,12.2 C0.6,12.0 0.5,11.8 0.5,11.5 C0.5,11.2 0.6,10.9 0.8,10.6 C1.1,10.3 1.5,10.0 2.0,9.7 Z"></path> </g> </svg>
